<svg width="163" height="58" viewBox="0 0 163 58" fill="none" xmlns="http://www.w3.org/2000/svg">
<path d="M26.1818 22.375C25.9432 21.5455 25.608 20.8125 25.1761 20.1761C24.7443 19.5284 24.2159 18.983 23.5909 18.5398C22.9773 18.0852 22.2727 17.7386 21.4773 17.5C20.6932 17.2614 19.8239 17.142 18.8693 17.142C17.0852 17.142 15.517 17.5852 14.1648 18.4716C12.8239 19.358 11.7784 20.6477 11.0284 22.3409C10.2784 24.0227 9.90341 26.0795 9.90341 28.5114C9.90341 30.9432 10.2727 33.0114 11.0114 34.7159C11.75 36.4205 12.7955 37.7216 14.1477 38.6193C15.5 39.5057 17.0966 39.9489 18.9375 39.9489C20.608 39.9489 22.0341 39.6534 23.2159 39.0625C24.4091 38.4602 25.3182 37.6136 25.9432 36.5227C26.5795 35.4318 26.8977 34.142 26.8977 32.6534L28.3977 32.875H19.3977V27.3182H34.0057V31.7159C34.0057 34.7841 33.358 37.4205 32.0625 39.625C30.767 41.8182 28.983 43.5114 26.7102 44.7045C24.4375 45.8864 21.8352 46.4773 18.9034 46.4773C15.6307 46.4773 12.7557 45.7557 10.2784 44.3125C7.80114 42.858 5.86932 40.7955 4.48295 38.125C3.10795 35.4432 2.42045 32.2614 2.42045 28.5795C2.42045 25.75 2.82955 23.2273 3.64773 21.0114C4.47727 18.7841 5.63636 16.8977 7.125 15.3523C8.61364 13.8068 10.3466 12.6307 12.3239 11.8239C14.3011 11.017 16.4432 10.6136 18.75 10.6136C20.7273 10.6136 22.5682 10.9034 24.2727 11.483C25.9773 12.0511 27.4886 12.858 28.8068 13.9034C30.1364 14.9489 31.2216 16.1932 32.0625 17.6364C32.9034 19.0682 33.4432 20.6477 33.6818 22.375H26.1818ZM39.5497 46V11.0909H53.3224C55.9588 11.0909 58.2088 11.5625 60.0724 12.5057C61.9474 13.4375 63.3736 14.7614 64.3509 16.4773C65.3395 18.1818 65.8338 20.1875 65.8338 22.4943C65.8338 24.8125 65.3338 26.8068 64.3338 28.4773C63.3338 30.1364 61.8849 31.4091 59.9872 32.2955C58.1009 33.1818 55.8168 33.625 53.1349 33.625H43.9134V27.6932H51.9418C53.3509 27.6932 54.5213 27.5 55.4531 27.1136C56.3849 26.7273 57.0781 26.1477 57.5327 25.375C57.9986 24.6023 58.2315 23.642 58.2315 22.4943C58.2315 21.3352 57.9986 20.358 57.5327 19.5625C57.0781 18.767 56.3793 18.1648 55.4361 17.7557C54.5043 17.3352 53.3281 17.125 51.9077 17.125H46.9304V46H39.5497ZM58.402 30.1136L67.0781 46H58.9304L50.4418 30.1136H58.402ZM71.0497 46V11.0909H94.5724V17.1761H78.4304V25.4943H93.3622V31.5795H78.4304V39.9148H94.6406V46H71.0497ZM100.44 46V11.0909H123.963V17.1761H107.821V25.4943H122.753V31.5795H107.821V39.9148H124.031V46H100.44ZM159.03 11.0909V46H152.655L137.467 24.0284H137.212V46H129.831V11.0909H136.308L151.376 33.0455H151.683V11.0909H159.03Z" fill="white"/>
</svg>
